<svg xmlns="http://www.w3.org/2000/svg" version="1.1" xmlns:xlink="http://www.w3.org/1999/xlink" xmlns:svgjs="http://svgjs.com/svgjs" width="1006" height="495" preserveAspectRatio="none" viewBox="0 0 1006 495"><g mask="url(&quot;#SvgjsMask1405&quot;)" fill="none"><rect width="1006" height="495" x="0" y="0" fill="url(#SvgjsLinearGradient1406)"></rect><path d="M1039.5333333333333 495L0 495 L0 215.04Q28.26 159.46, 83.83333333333333 187.72Q151.75 171.8, 167.66666666666666 239.71Q175.75 197.5, 217.96666666666664 205.58Q232.63 169.95, 268.26666666666665 184.61Q318.06 184.1, 318.56666666666666 233.89Q351.66 183.15, 402.4 216.25Q413.7 177.25, 452.7 188.55Q470.44 155.99, 503 173.73Q567.68 154.58, 586.8333333333334 219.26Q633.1 215.23, 637.1333333333333 261.49Q645.49 186.01, 720.9666666666667 194.36Q756.87 146.43, 804.8000000000001 182.34Q851.19 178.43, 855.1 224.81Q866.05 185.46, 905.4 196.41Q952.39 159.56, 989.2333333333333 206.55Q1027.51 194.53, 1039.5333333333333 232.8z" fill="#182f5d"></path><path d="M1089.8333333333333 495L0 495 L0 286.51Q50.52 253.19, 83.83333333333333 303.71Q145.19 281.24, 167.66666666666666 342.6Q185.7 310.33, 217.96666666666664 328.36Q247.68 274.24, 301.79999999999995 303.95Q321.57 273.42, 352.09999999999997 293.19Q394.09 284.88, 402.4 326.87Q435.78 309.95, 452.7 343.33Q453.06 293.39, 503 293.76Q528.46 235.38, 586.8333333333334 260.84Q617.6 241.31, 637.1333333333333 272.08Q675.17 259.82, 687.4333333333333 297.86Q734.4 261, 771.2666666666667 307.97Q823.03 309.44, 821.5666666666666 361.2Q799.34 288.67, 871.8666666666666 266.44Q933.19 243.93, 955.6999999999999 305.25Q990.21 289.47, 1005.9999999999999 323.98Q1013.42 247.56, 1089.8333333333333 254.98z" fill="#25467d"></path><path d="M1056.3 495L0 495 L0 336.58Q59.87 346.15, 50.3 406.03Q89.66 395.09, 100.6 434.45Q121.57 371.59, 184.43333333333334 392.56Q193.87 351.7, 234.73333333333335 361.13Q286.05 328.62, 318.56666666666666 379.94Q372 383.07, 368.8666666666667 436.5Q367.66 351.46, 452.7 350.25Q472.08 319.32, 503 338.7Q546.05 331.45, 553.3 374.5Q609.25 380.16, 603.5999999999999 436.11Q602.92 351.6, 687.4333333333333 350.92Q721.19 300.85, 771.2666666666667 334.61Q815.86 328.91, 821.5666666666666 373.5Q872.09 373.73, 871.8666666666666 424.25Q862.96 365.04, 922.1666666666665 356.13Q955.92 306.05, 1005.9999999999999 339.81Q1045 328.51, 1056.3 367.52z" fill="#356cb1"></path><path d="M1056.2999999999997 495L0 495 L0 461.07Q33.12 443.89, 50.3 477.02Q113.43 456.32, 134.13333333333333 519.45Q145.74 480.75, 184.43333333333334 492.36Q205.65 429.74, 268.26666666666665 450.96Q322.9 421.76, 352.09999999999997 476.4Q384.36 458.35, 402.4 490.61Q452.52 456.89, 486.2333333333333 507.01Q536.51 473.46, 570.0666666666666 523.74Q572.5 475.87, 620.3666666666666 478.3Q631.33 438.97, 670.6666666666665 449.93Q703.64 432.6, 720.9666666666665 465.57Q741.81 402.58, 804.7999999999998 423.43Q835.82 404.16, 855.0999999999998 435.18Q891.54 421.32, 905.3999999999997 457.76Q909.82 411.88, 955.6999999999997 416.3Q987.15 397.46, 1005.9999999999997 428.91Q1057.59 430.21, 1056.2999999999997 481.8z" fill="white"></path></g><defs><mask id="SvgjsMask1405"><rect width="1006" height="495" fill="#ffffff"></rect></mask><linearGradient x1="12.7%" y1="-25.81%" x2="87.3%" y2="125.81%" gradientUnits="userSpaceOnUse" id="SvgjsLinearGradient1406"><stop stop-color="rgba(14, 60, 71, 1)" offset="0"></stop><stop stop-color="rgba(152, 158, 0, 1)" offset="0.8"></stop></linearGradient></defs></svg>